<svg xmlns="http://www.w3.org/2000/svg" viewBox="0 0 640 360" font-family="sans-serif">
<rect x="0" y="0" width="640" height="360" fill="#ffffff"/>
<text x="320.00" y="24.00" font-size="14" text-anchor="middle" fill="#222">Route distance to nearest mapped crossing, by destination type</text>
<line x1="70.00" y1="300.00" x2="610.00" y2="300.00" stroke="#e5e7eb" stroke-width="1"/>
<text x="62.00" y="304.00" font-size="10" text-anchor="end" fill="#555">0</text>
<line x1="70.00" y1="236.50" x2="610.00" y2="236.50" stroke="#e5e7eb" stroke-width="1"/>
<text x="62.00" y="240.50" font-size="10" text-anchor="end" fill="#555">50</text>
<line x1="70.00" y1="173.00" x2="610.00" y2="173.00" stroke="#e5e7eb" stroke-width="1"/>
<text x="62.00" y="177.00" font-size="10" text-anchor="end" fill="#555">100</text>
<line x1="70.00" y1="109.50" x2="610.00" y2="109.50" stroke="#e5e7eb" stroke-width="1"/>
<text x="62.00" y="113.50" font-size="10" text-anchor="end" fill="#555">150</text>
<line x1="70.00" y1="46.00" x2="610.00" y2="46.00" stroke="#e5e7eb" stroke-width="1"/>
<text x="62.00" y="50.00" font-size="10" text-anchor="end" fill="#555">200</text>
<rect x="83.50" y="206.02" width="40.50" height="93.98" fill="#1a9850"/>
<rect x="83.50" y="155.22" width="40.50" height="50.80" fill="#a6d96a"/>
<rect x="83.50" y="101.88" width="40.50" height="53.34" fill="#fdae61"/>
<rect x="83.50" y="72.67" width="40.50" height="29.21" fill="#d73027"/>
<rect x="83.50" y="71.40" width="40.50" height="1.27" fill="#9e9e9e"/>
<text x="103.75" y="314.00" font-size="9" text-anchor="middle" fill="#333">bus_stop</text>
<text x="103.75" y="67.40" font-size="9" text-anchor="middle" fill="#333">180</text>
<rect x="151.00" y="288.57" width="40.50" height="11.43" fill="#1a9850"/>
<rect x="151.00" y="232.69" width="40.50" height="55.88" fill="#a6d96a"/>
<rect x="151.00" y="198.40" width="40.50" height="34.29" fill="#fdae61"/>
<rect x="151.00" y="169.19" width="40.50" height="29.21" fill="#d73027"/>
<text x="171.25" y="314.00" font-size="9" text-anchor="middle" fill="#333">park</text>
<text x="171.25" y="165.19" font-size="9" text-anchor="middle" fill="#333">103</text>
<rect x="218.50" y="294.92" width="40.50" height="5.08" fill="#1a9850"/>
<rect x="218.50" y="273.33" width="40.50" height="21.59" fill="#a6d96a"/>
<rect x="218.50" y="260.63" width="40.50" height="12.70" fill="#fdae61"/>
<rect x="218.50" y="250.47" width="40.50" height="10.16" fill="#d73027"/>
<text x="238.75" y="314.00" font-size="9" text-anchor="middle" fill="#333">playground</text>
<text x="238.75" y="246.47" font-size="9" text-anchor="middle" fill="#333">39</text>
<rect x="286.00" y="294.92" width="40.50" height="5.08" fill="#1a9850"/>
<rect x="286.00" y="280.95" width="40.50" height="13.97" fill="#a6d96a"/>
<rect x="286.00" y="264.44" width="40.50" height="16.51" fill="#fdae61"/>
<rect x="286.00" y="253.01" width="40.50" height="11.43" fill="#d73027"/>
<text x="306.25" y="314.00" font-size="9" text-anchor="middle" fill="#333">kindergarten</text>
<text x="306.25" y="249.01" font-size="9" text-anchor="middle" fill="#333">37</text>
<rect x="353.50" y="298.73" width="40.50" height="1.27" fill="#1a9850"/>
<rect x="353.50" y="282.22" width="40.50" height="16.51" fill="#a6d96a"/>
<rect x="353.50" y="266.98" width="40.50" height="15.24" fill="#fdae61"/>
<rect x="353.50" y="264.44" width="40.50" height="2.54" fill="#d73027"/>
<text x="373.75" y="314.00" font-size="9" text-anchor="middle" fill="#333">school</text>
<text x="373.75" y="260.44" font-size="9" text-anchor="middle" fill="#333">28</text>
<rect x="421.00" y="297.46" width="40.50" height="2.54" fill="#a6d96a"/>
<text x="441.25" y="314.00" font-size="9" text-anchor="middle" fill="#333">community_centre</text>
<text x="441.25" y="293.46" font-size="9" text-anchor="middle" fill="#333">2</text>
<rect x="488.50" y="298.73" width="40.50" height="1.27" fill="#a6d96a"/>
<text x="508.75" y="314.00" font-size="9" text-anchor="middle" fill="#333">childcare</text>
<text x="508.75" y="294.73" font-size="9" text-anchor="middle" fill="#333">1</text>
<rect x="556.00" y="298.73" width="40.50" height="1.27" fill="#a6d96a"/>
<text x="576.25" y="314.00" font-size="9" text-anchor="middle" fill="#333">recreation_ground</text>
<text x="576.25" y="294.73" font-size="9" text-anchor="middle" fill="#333">1</text>
<rect x="70.00" y="336" width="12" height="12" fill="#1a9850"/>
<text x="86.00" y="346.00" font-size="10" text-anchor="start" fill="#222">0-100 m</text>
<rect x="178.00" y="336" width="12" height="12" fill="#a6d96a"/>
<text x="194.00" y="346.00" font-size="10" text-anchor="start" fill="#222">100-250 m</text>
<rect x="286.00" y="336" width="12" height="12" fill="#fdae61"/>
<text x="302.00" y="346.00" font-size="10" text-anchor="start" fill="#222">250-500 m</text>
<rect x="394.00" y="336" width="12" height="12" fill="#d73027"/>
<text x="410.00" y="346.00" font-size="10" text-anchor="start" fill="#222">500+ m</text>
<rect x="502.00" y="336" width="12" height="12" fill="#9e9e9e"/>
<text x="518.00" y="346.00" font-size="10" text-anchor="start" fill="#222">unreachable</text>
</svg>
