<svg xmlns="http://www.w3.org/2000/svg" viewBox="0 0 640 360" font-family="sans-serif">
<rect x="0" y="0" width="640" height="360" fill="#ffffff"/>
<text x="320.00" y="24.00" font-size="14" text-anchor="middle" fill="#222">Straight-line vs route distance to nearest mapped crossing</text>
<line x1="60.00" y1="300.00" x2="60.00" y2="46.00" stroke="#f1f1f1" stroke-width="1"/>
<line x1="60.00" y1="300.00" x2="610.00" y2="300.00" stroke="#f1f1f1" stroke-width="1"/>
<text x="60.00" y="314.00" font-size="9" text-anchor="middle" fill="#555">0</text>
<text x="54.00" y="303.00" font-size="9" text-anchor="end" fill="#555">0</text>
<line x1="174.58" y1="300.00" x2="174.58" y2="46.00" stroke="#f1f1f1" stroke-width="1"/>
<line x1="60.00" y1="247.08" x2="610.00" y2="247.08" stroke="#f1f1f1" stroke-width="1"/>
<text x="174.58" y="314.00" font-size="9" text-anchor="middle" fill="#555">250</text>
<text x="54.00" y="250.08" font-size="9" text-anchor="end" fill="#555">250</text>
<line x1="289.17" y1="300.00" x2="289.17" y2="46.00" stroke="#f1f1f1" stroke-width="1"/>
<line x1="60.00" y1="194.17" x2="610.00" y2="194.17" stroke="#f1f1f1" stroke-width="1"/>
<text x="289.17" y="314.00" font-size="9" text-anchor="middle" fill="#555">500</text>
<text x="54.00" y="197.17" font-size="9" text-anchor="end" fill="#555">500</text>
<line x1="403.75" y1="300.00" x2="403.75" y2="46.00" stroke="#f1f1f1" stroke-width="1"/>
<line x1="60.00" y1="141.25" x2="610.00" y2="141.25" stroke="#f1f1f1" stroke-width="1"/>
<text x="403.75" y="314.00" font-size="9" text-anchor="middle" fill="#555">750</text>
<text x="54.00" y="144.25" font-size="9" text-anchor="end" fill="#555">750</text>
<line x1="518.33" y1="300.00" x2="518.33" y2="46.00" stroke="#f1f1f1" stroke-width="1"/>
<line x1="60.00" y1="88.33" x2="610.00" y2="88.33" stroke="#f1f1f1" stroke-width="1"/>
<text x="518.33" y="314.00" font-size="9" text-anchor="middle" fill="#555">1000</text>
<text x="54.00" y="91.33" font-size="9" text-anchor="end" fill="#555">1000</text>
<line x1="60.00" y1="300.00" x2="610.00" y2="46.00" stroke="#888" stroke-width="1" stroke-dasharray="4 3"/>
<text x="606.00" y="60.00" font-size="9" text-anchor="end" fill="#888">route = straight</text>
<circle cx="229.95" cy="202.78" r="2.4" fill="#d73027" fill-opacity="0.75"/>
<circle cx="75.35" cy="291.30" r="2.4" fill="#4575b4" fill-opacity="0.75"/>
<circle cx="75.81" cy="290.48" r="2.4" fill="#4575b4" fill-opacity="0.75"/>
<circle cx="135.95" cy="262.89" r="2.4" fill="#4575b4" fill-opacity="0.75"/>
<circle cx="198.88" cy="226.30" r="2.4" fill="#d73027" fill-opacity="0.75"/>
<circle cx="64.86" cy="297.63" r="2.4" fill="#4575b4" fill-opacity="0.75"/>
<circle cx="165.23" cy="245.69" r="2.4" fill="#d73027" fill-opacity="0.75"/>
<circle cx="83.19" cy="288.38" r="2.4" fill="#4575b4" fill-opacity="0.75"/>
<circle cx="72.28" cy="293.46" r="2.4" fill="#4575b4" fill-opacity="0.75"/>
<circle cx="73.25" cy="292.44" r="2.4" fill="#4575b4" fill-opacity="0.75"/>
<circle cx="88.42" cy="286.14" r="2.4" fill="#4575b4" fill-opacity="0.75"/>
<circle cx="135.85" cy="259.70" r="2.4" fill="#4575b4" fill-opacity="0.75"/>
<circle cx="132.92" cy="262.53" r="2.4" fill="#4575b4" fill-opacity="0.75"/>
<circle cx="120.55" cy="270.90" r="2.4" fill="#4575b4" fill-opacity="0.75"/>
<circle cx="130.68" cy="266.37" r="2.4" fill="#4575b4" fill-opacity="0.75"/>
<circle cx="467.87" cy="101.99" r="2.4" fill="#d73027" fill-opacity="0.75"/>
<circle cx="431.20" cy="119.77" r="2.4" fill="#d73027" fill-opacity="0.75"/>
<circle cx="368.92" cy="148.85" r="2.4" fill="#d73027" fill-opacity="0.75"/>
<circle cx="365.80" cy="150.56" r="2.4" fill="#d73027" fill-opacity="0.75"/>
<circle cx="210.75" cy="225.22" r="2.4" fill="#d73027" fill-opacity="0.75"/>
<circle cx="212.44" cy="225.58" r="2.4" fill="#d73027" fill-opacity="0.75"/>
<circle cx="101.89" cy="273.03" r="2.4" fill="#4575b4" fill-opacity="0.75"/>
<circle cx="222.71" cy="213.36" r="2.4" fill="#d73027" fill-opacity="0.75"/>
<circle cx="82.96" cy="287.38" r="2.4" fill="#4575b4" fill-opacity="0.75"/>
<circle cx="85.58" cy="282.05" r="2.4" fill="#4575b4" fill-opacity="0.75"/>
<circle cx="165.37" cy="250.09" r="2.4" fill="#4575b4" fill-opacity="0.75"/>
<circle cx="102.26" cy="279.62" r="2.4" fill="#4575b4" fill-opacity="0.75"/>
<circle cx="87.09" cy="284.61" r="2.4" fill="#4575b4" fill-opacity="0.75"/>
<circle cx="78.79" cy="290.52" r="2.4" fill="#4575b4" fill-opacity="0.75"/>
<circle cx="77.69" cy="290.94" r="2.4" fill="#4575b4" fill-opacity="0.75"/>
<circle cx="81.94" cy="286.41" r="2.4" fill="#4575b4" fill-opacity="0.75"/>
<circle cx="242.83" cy="211.69" r="2.4" fill="#d73027" fill-opacity="0.75"/>
<circle cx="91.76" cy="284.25" r="2.4" fill="#4575b4" fill-opacity="0.75"/>
<circle cx="102.99" cy="278.41" r="2.4" fill="#4575b4" fill-opacity="0.75"/>
<circle cx="79.12" cy="289.67" r="2.4" fill="#4575b4" fill-opacity="0.75"/>
<circle cx="206.39" cy="228.41" r="2.4" fill="#d73027" fill-opacity="0.75"/>
<circle cx="193.74" cy="233.32" r="2.4" fill="#d73027" fill-opacity="0.75"/>
<circle cx="221.29" cy="211.42" r="2.4" fill="#d73027" fill-opacity="0.75"/>
<circle cx="66.00" cy="294.92" r="2.4" fill="#4575b4" fill-opacity="0.75"/>
<circle cx="145.07" cy="242.91" r="2.4" fill="#d73027" fill-opacity="0.75"/>
<circle cx="69.17" cy="295.17" r="2.4" fill="#4575b4" fill-opacity="0.75"/>
<circle cx="84.52" cy="287.68" r="2.4" fill="#4575b4" fill-opacity="0.75"/>
<circle cx="90.80" cy="284.76" r="2.4" fill="#4575b4" fill-opacity="0.75"/>
<circle cx="110.65" cy="271.83" r="2.4" fill="#4575b4" fill-opacity="0.75"/>
<circle cx="164.91" cy="237.05" r="2.4" fill="#d73027" fill-opacity="0.75"/>
<circle cx="93.37" cy="282.56" r="2.4" fill="#4575b4" fill-opacity="0.75"/>
<circle cx="111.42" cy="274.39" r="2.4" fill="#4575b4" fill-opacity="0.75"/>
<circle cx="179.03" cy="224.29" r="2.4" fill="#d73027" fill-opacity="0.75"/>
<circle cx="175.41" cy="204.07" r="2.4" fill="#d73027" fill-opacity="0.75"/>
<circle cx="95.02" cy="280.70" r="2.4" fill="#4575b4" fill-opacity="0.75"/>
<circle cx="119.49" cy="270.03" r="2.4" fill="#4575b4" fill-opacity="0.75"/>
<circle cx="178.66" cy="242.41" r="2.4" fill="#d73027" fill-opacity="0.75"/>
<circle cx="190.35" cy="236.56" r="2.4" fill="#d73027" fill-opacity="0.75"/>
<circle cx="135.62" cy="251.44" r="2.4" fill="#4575b4" fill-opacity="0.75"/>
<circle cx="175.50" cy="236.29" r="2.4" fill="#d73027" fill-opacity="0.75"/>
<circle cx="162.76" cy="234.45" r="2.4" fill="#d73027" fill-opacity="0.75"/>
<circle cx="79.20" cy="289.90" r="2.4" fill="#4575b4" fill-opacity="0.75"/>
<circle cx="64.80" cy="294.08" r="2.4" fill="#4575b4" fill-opacity="0.75"/>
<circle cx="77.23" cy="290.88" r="2.4" fill="#4575b4" fill-opacity="0.75"/>
<circle cx="155.47" cy="252.08" r="2.4" fill="#4575b4" fill-opacity="0.75"/>
<circle cx="132.10" cy="261.96" r="2.4" fill="#4575b4" fill-opacity="0.75"/>
<circle cx="144.56" cy="255.91" r="2.4" fill="#4575b4" fill-opacity="0.75"/>
<circle cx="71.73" cy="293.55" r="2.4" fill="#4575b4" fill-opacity="0.75"/>
<circle cx="210.33" cy="212.24" r="2.4" fill="#d73027" fill-opacity="0.75"/>
<circle cx="198.83" cy="217.09" r="2.4" fill="#d73027" fill-opacity="0.75"/>
<circle cx="154.42" cy="248.46" r="2.4" fill="#4575b4" fill-opacity="0.75"/>
<circle cx="145.34" cy="251.06" r="2.4" fill="#4575b4" fill-opacity="0.75"/>
<circle cx="70.31" cy="293.42" r="2.4" fill="#4575b4" fill-opacity="0.75"/>
<circle cx="70.72" cy="293.78" r="2.4" fill="#4575b4" fill-opacity="0.75"/>
<circle cx="122.93" cy="257.16" r="2.4" fill="#4575b4" fill-opacity="0.75"/>
<circle cx="186.59" cy="240.12" r="2.4" fill="#d73027" fill-opacity="0.75"/>
<circle cx="213.08" cy="226.40" r="2.4" fill="#d73027" fill-opacity="0.75"/>
<circle cx="80.53" cy="289.90" r="2.4" fill="#4575b4" fill-opacity="0.75"/>
<circle cx="133.43" cy="252.78" r="2.4" fill="#4575b4" fill-opacity="0.75"/>
<circle cx="137.69" cy="250.17" r="2.4" fill="#4575b4" fill-opacity="0.75"/>
<circle cx="205.89" cy="214.95" r="2.4" fill="#d73027" fill-opacity="0.75"/>
<circle cx="179.67" cy="217.70" r="2.4" fill="#d73027" fill-opacity="0.75"/>
<circle cx="85.62" cy="287.38" r="2.4" fill="#4575b4" fill-opacity="0.75"/>
<circle cx="66.97" cy="296.78" r="2.4" fill="#4575b4" fill-opacity="0.75"/>
<circle cx="79.28" cy="290.52" r="2.4" fill="#4575b4" fill-opacity="0.75"/>
<circle cx="83.15" cy="288.87" r="2.4" fill="#4575b4" fill-opacity="0.75"/>
<circle cx="74.71" cy="292.59" r="2.4" fill="#4575b4" fill-opacity="0.75"/>
<circle cx="70.22" cy="290.77" r="2.4" fill="#4575b4" fill-opacity="0.75"/>
<circle cx="79.66" cy="290.60" r="2.4" fill="#4575b4" fill-opacity="0.75"/>
<circle cx="73.25" cy="293.04" r="2.4" fill="#4575b4" fill-opacity="0.75"/>
<circle cx="100.74" cy="278.65" r="2.4" fill="#4575b4" fill-opacity="0.75"/>
<circle cx="108.22" cy="277.61" r="2.4" fill="#4575b4" fill-opacity="0.75"/>
<circle cx="84.20" cy="288.49" r="2.4" fill="#4575b4" fill-opacity="0.75"/>
<circle cx="72.19" cy="293.73" r="2.4" fill="#4575b4" fill-opacity="0.75"/>
<circle cx="85.99" cy="286.26" r="2.4" fill="#4575b4" fill-opacity="0.75"/>
<circle cx="88.88" cy="285.82" r="2.4" fill="#4575b4" fill-opacity="0.75"/>
<circle cx="68.57" cy="293.80" r="2.4" fill="#4575b4" fill-opacity="0.75"/>
<circle cx="85.50" cy="285.65" r="2.4" fill="#4575b4" fill-opacity="0.75"/>
<circle cx="112.02" cy="275.72" r="2.4" fill="#4575b4" fill-opacity="0.75"/>
<circle cx="212.12" cy="226.93" r="2.4" fill="#d73027" fill-opacity="0.75"/>
<circle cx="267.07" cy="186.08" r="2.4" fill="#d73027" fill-opacity="0.75"/>
<circle cx="111.56" cy="275.26" r="2.4" fill="#4575b4" fill-opacity="0.75"/>
<circle cx="81.95" cy="288.45" r="2.4" fill="#4575b4" fill-opacity="0.75"/>
<circle cx="79.07" cy="289.46" r="2.4" fill="#4575b4" fill-opacity="0.75"/>
<circle cx="88.97" cy="272.00" r="2.4" fill="#4575b4" fill-opacity="0.75"/>
<circle cx="103.54" cy="278.49" r="2.4" fill="#4575b4" fill-opacity="0.75"/>
<circle cx="103.86" cy="279.09" r="2.4" fill="#4575b4" fill-opacity="0.75"/>
<circle cx="165.65" cy="237.28" r="2.4" fill="#d73027" fill-opacity="0.75"/>
<circle cx="160.51" cy="236.27" r="2.4" fill="#d73027" fill-opacity="0.75"/>
<circle cx="107.71" cy="276.93" r="2.4" fill="#4575b4" fill-opacity="0.75"/>
<circle cx="76.00" cy="292.13" r="2.4" fill="#4575b4" fill-opacity="0.75"/>
<circle cx="223.49" cy="222.40" r="2.4" fill="#d73027" fill-opacity="0.75"/>
<circle cx="238.66" cy="180.98" r="2.4" fill="#d73027" fill-opacity="0.75"/>
<circle cx="118.67" cy="271.76" r="2.4" fill="#4575b4" fill-opacity="0.75"/>
<circle cx="75.47" cy="291.55" r="2.4" fill="#4575b4" fill-opacity="0.75"/>
<circle cx="343.85" cy="156.60" r="2.4" fill="#d73027" fill-opacity="0.75"/>
<circle cx="322.07" cy="153.10" r="2.4" fill="#d73027" fill-opacity="0.75"/>
<circle cx="304.57" cy="163.35" r="2.4" fill="#d73027" fill-opacity="0.75"/>
<circle cx="182.97" cy="241.64" r="2.4" fill="#d73027" fill-opacity="0.75"/>
<circle cx="101.71" cy="279.11" r="2.4" fill="#4575b4" fill-opacity="0.75"/>
<circle cx="151.35" cy="256.33" r="2.4" fill="#4575b4" fill-opacity="0.75"/>
<circle cx="149.88" cy="255.63" r="2.4" fill="#4575b4" fill-opacity="0.75"/>
<circle cx="114.91" cy="273.90" r="2.4" fill="#4575b4" fill-opacity="0.75"/>
<circle cx="108.86" cy="273.82" r="2.4" fill="#4575b4" fill-opacity="0.75"/>
<circle cx="111.01" cy="222.68" r="2.4" fill="#d73027" fill-opacity="0.75"/>
<circle cx="181.73" cy="242.60" r="2.4" fill="#d73027" fill-opacity="0.75"/>
<circle cx="136.77" cy="263.49" r="2.4" fill="#4575b4" fill-opacity="0.75"/>
<circle cx="248.92" cy="195.61" r="2.4" fill="#d73027" fill-opacity="0.75"/>
<circle cx="143.05" cy="260.52" r="2.4" fill="#4575b4" fill-opacity="0.75"/>
<circle cx="170.92" cy="238.24" r="2.4" fill="#d73027" fill-opacity="0.75"/>
<circle cx="170.18" cy="248.78" r="2.4" fill="#4575b4" fill-opacity="0.75"/>
<circle cx="88.60" cy="285.16" r="2.4" fill="#4575b4" fill-opacity="0.75"/>
<circle cx="74.53" cy="286.09" r="2.4" fill="#4575b4" fill-opacity="0.75"/>
<circle cx="136.76" cy="263.08" r="2.4" fill="#4575b4" fill-opacity="0.75"/>
<circle cx="100.15" cy="279.98" r="2.4" fill="#4575b4" fill-opacity="0.75"/>
<circle cx="77.82" cy="291.81" r="2.4" fill="#4575b4" fill-opacity="0.75"/>
<circle cx="118.85" cy="262.15" r="2.4" fill="#4575b4" fill-opacity="0.75"/>
<circle cx="78.75" cy="286.71" r="2.4" fill="#4575b4" fill-opacity="0.75"/>
<circle cx="89.21" cy="286.93" r="2.4" fill="#4575b4" fill-opacity="0.75"/>
<circle cx="75.64" cy="292.73" r="2.4" fill="#4575b4" fill-opacity="0.75"/>
<circle cx="176.10" cy="244.48" r="2.4" fill="#d73027" fill-opacity="0.75"/>
<circle cx="94.10" cy="280.70" r="2.4" fill="#4575b4" fill-opacity="0.75"/>
<circle cx="209.37" cy="204.35" r="2.4" fill="#d73027" fill-opacity="0.75"/>
<circle cx="93.90" cy="281.98" r="2.4" fill="#4575b4" fill-opacity="0.75"/>
<circle cx="170.64" cy="247.99" r="2.4" fill="#4575b4" fill-opacity="0.75"/>
<circle cx="87.27" cy="286.90" r="2.4" fill="#4575b4" fill-opacity="0.75"/>
<circle cx="75.45" cy="292.10" r="2.4" fill="#4575b4" fill-opacity="0.75"/>
<circle cx="85.21" cy="276.82" r="2.4" fill="#4575b4" fill-opacity="0.75"/>
<circle cx="283.02" cy="188.11" r="2.4" fill="#d73027" fill-opacity="0.75"/>
<circle cx="72.24" cy="292.04" r="2.4" fill="#4575b4" fill-opacity="0.75"/>
<circle cx="87.82" cy="285.46" r="2.4" fill="#4575b4" fill-opacity="0.75"/>
<circle cx="73.77" cy="291.15" r="2.4" fill="#4575b4" fill-opacity="0.75"/>
<circle cx="82.41" cy="288.32" r="2.4" fill="#4575b4" fill-opacity="0.75"/>
<circle cx="83.82" cy="287.44" r="2.4" fill="#4575b4" fill-opacity="0.75"/>
<circle cx="330.42" cy="135.77" r="2.4" fill="#d73027" fill-opacity="0.75"/>
<circle cx="330.92" cy="142.69" r="2.4" fill="#d73027" fill-opacity="0.75"/>
<circle cx="167.48" cy="234.47" r="2.4" fill="#d73027" fill-opacity="0.75"/>
<circle cx="277.85" cy="164.30" r="2.4" fill="#d73027" fill-opacity="0.75"/>
<circle cx="229.86" cy="192.49" r="2.4" fill="#d73027" fill-opacity="0.75"/>
<circle cx="155.56" cy="233.07" r="2.4" fill="#d73027" fill-opacity="0.75"/>
<circle cx="338.07" cy="146.69" r="2.4" fill="#d73027" fill-opacity="0.75"/>
<circle cx="362.50" cy="117.59" r="2.4" fill="#d73027" fill-opacity="0.75"/>
<circle cx="113.17" cy="247.36" r="2.4" fill="#4575b4" fill-opacity="0.75"/>
<circle cx="78.10" cy="289.92" r="2.4" fill="#4575b4" fill-opacity="0.75"/>
<circle cx="193.10" cy="233.71" r="2.4" fill="#d73027" fill-opacity="0.75"/>
<circle cx="73.83" cy="293.81" r="2.4" fill="#4575b4" fill-opacity="0.75"/>
<circle cx="82.62" cy="288.08" r="2.4" fill="#4575b4" fill-opacity="0.75"/>
<circle cx="76.04" cy="287.85" r="2.4" fill="#4575b4" fill-opacity="0.75"/>
<circle cx="87.33" cy="286.26" r="2.4" fill="#4575b4" fill-opacity="0.75"/>
<circle cx="75.38" cy="289.64" r="2.4" fill="#4575b4" fill-opacity="0.75"/>
<circle cx="478.18" cy="54.74" r="2.4" fill="#d73027" fill-opacity="0.75"/>
<circle cx="390.14" cy="91.59" r="2.4" fill="#d73027" fill-opacity="0.75"/>
<circle cx="165.83" cy="236.48" r="2.4" fill="#d73027" fill-opacity="0.75"/>
<circle cx="169.27" cy="232.35" r="2.4" fill="#d73027" fill-opacity="0.75"/>
<circle cx="103.69" cy="279.69" r="2.4" fill="#4575b4" fill-opacity="0.75"/>
<circle cx="202.50" cy="230.43" r="2.4" fill="#d73027" fill-opacity="0.75"/>
<circle cx="99.00" cy="279.17" r="2.4" fill="#4575b4" fill-opacity="0.75"/>
<circle cx="174.54" cy="219.86" r="2.4" fill="#d73027" fill-opacity="0.75"/>
<circle cx="343.94" cy="144.32" r="2.4" fill="#d73027" fill-opacity="0.75"/>
<circle cx="345.68" cy="141.74" r="2.4" fill="#d73027" fill-opacity="0.75"/>
<circle cx="256.49" cy="176.73" r="2.4" fill="#d73027" fill-opacity="0.75"/>
<circle cx="320.33" cy="136.74" r="2.4" fill="#d73027" fill-opacity="0.75"/>
<circle cx="345.63" cy="125.82" r="2.4" fill="#d73027" fill-opacity="0.75"/>
<circle cx="80.79" cy="291.09" r="2.4" fill="#4575b4" fill-opacity="0.75"/>
<circle cx="138.05" cy="260.10" r="2.4" fill="#4575b4" fill-opacity="0.75"/>
<circle cx="113.49" cy="256.76" r="2.4" fill="#4575b4" fill-opacity="0.75"/>
<circle cx="131.82" cy="253.56" r="2.4" fill="#4575b4" fill-opacity="0.75"/>
<circle cx="95.20" cy="269.90" r="2.4" fill="#4575b4" fill-opacity="0.75"/>
<circle cx="90.48" cy="282.81" r="2.4" fill="#4575b4" fill-opacity="0.75"/>
<circle cx="87.59" cy="274.41" r="2.4" fill="#4575b4" fill-opacity="0.75"/>
<circle cx="81.50" cy="274.05" r="2.4" fill="#4575b4" fill-opacity="0.75"/>
<circle cx="72.33" cy="281.73" r="2.4" fill="#4575b4" fill-opacity="0.75"/>
<circle cx="94.10" cy="281.65" r="2.4" fill="#4575b4" fill-opacity="0.75"/>
<circle cx="366.44" cy="82.28" r="2.4" fill="#d73027" fill-opacity="0.75"/>
<circle cx="239.67" cy="194.70" r="2.4" fill="#d73027" fill-opacity="0.75"/>
<circle cx="203.09" cy="182.33" r="2.4" fill="#d73027" fill-opacity="0.75"/>
<circle cx="208.32" cy="183.35" r="2.4" fill="#d73027" fill-opacity="0.75"/>
<circle cx="222.16" cy="187.84" r="2.4" fill="#d73027" fill-opacity="0.75"/>
<circle cx="227.02" cy="187.80" r="2.4" fill="#d73027" fill-opacity="0.75"/>
<circle cx="178.39" cy="229.45" r="2.4" fill="#d73027" fill-opacity="0.75"/>
<circle cx="159.55" cy="236.67" r="2.4" fill="#d73027" fill-opacity="0.75"/>
<circle cx="195.94" cy="217.03" r="2.4" fill="#d73027" fill-opacity="0.75"/>
<circle cx="195.03" cy="218.04" r="2.4" fill="#d73027" fill-opacity="0.75"/>
<circle cx="193.19" cy="219.19" r="2.4" fill="#d73027" fill-opacity="0.75"/>
<circle cx="198.00" cy="215.90" r="2.4" fill="#d73027" fill-opacity="0.75"/>
<circle cx="78.09" cy="289.43" r="2.4" fill="#4575b4" fill-opacity="0.75"/>
<circle cx="102.35" cy="275.76" r="2.4" fill="#4575b4" fill-opacity="0.75"/>
<circle cx="171.60" cy="215.46" r="2.4" fill="#d73027" fill-opacity="0.75"/>
<circle cx="143.14" cy="247.08" r="2.4" fill="#4575b4" fill-opacity="0.75"/>
<circle cx="146.85" cy="257.75" r="2.4" fill="#4575b4" fill-opacity="0.75"/>
<circle cx="101.89" cy="275.17" r="2.4" fill="#4575b4" fill-opacity="0.75"/>
<circle cx="148.37" cy="245.75" r="2.4" fill="#d73027" fill-opacity="0.75"/>
<circle cx="161.11" cy="238.55" r="2.4" fill="#d73027" fill-opacity="0.75"/>
<circle cx="150.75" cy="251.68" r="2.4" fill="#4575b4" fill-opacity="0.75"/>
<circle cx="146.21" cy="242.72" r="2.4" fill="#d73027" fill-opacity="0.75"/>
<circle cx="158.40" cy="240.73" r="2.4" fill="#d73027" fill-opacity="0.75"/>
<circle cx="138.06" cy="250.40" r="2.4" fill="#4575b4" fill-opacity="0.75"/>
<circle cx="148.75" cy="246.23" r="2.4" fill="#d73027" fill-opacity="0.75"/>
<circle cx="362.68" cy="128.13" r="2.4" fill="#d73027" fill-opacity="0.75"/>
<circle cx="360.71" cy="132.76" r="2.4" fill="#d73027" fill-opacity="0.75"/>
<circle cx="253.46" cy="183.58" r="2.4" fill="#d73027" fill-opacity="0.75"/>
<circle cx="86.26" cy="271.00" r="2.4" fill="#4575b4" fill-opacity="0.75"/>
<circle cx="246.40" cy="188.47" r="2.4" fill="#d73027" fill-opacity="0.75"/>
<circle cx="110.69" cy="272.86" r="2.4" fill="#4575b4" fill-opacity="0.75"/>
<circle cx="80.17" cy="269.31" r="2.4" fill="#4575b4" fill-opacity="0.75"/>
<circle cx="86.26" cy="276.46" r="2.4" fill="#4575b4" fill-opacity="0.75"/>
<circle cx="283.07" cy="150.56" r="2.4" fill="#d73027" fill-opacity="0.75"/>
<circle cx="291.64" cy="150.31" r="2.4" fill="#d73027" fill-opacity="0.75"/>
<circle cx="76.82" cy="280.87" r="2.4" fill="#4575b4" fill-opacity="0.75"/>
<circle cx="75.86" cy="286.90" r="2.4" fill="#4575b4" fill-opacity="0.75"/>
<circle cx="168.26" cy="234.85" r="2.4" fill="#d73027" fill-opacity="0.75"/>
<circle cx="187.78" cy="213.79" r="2.4" fill="#d73027" fill-opacity="0.75"/>
<circle cx="90.07" cy="261.73" r="2.4" fill="#4575b4" fill-opacity="0.75"/>
<circle cx="104.37" cy="273.18" r="2.4" fill="#4575b4" fill-opacity="0.75"/>
<circle cx="162.48" cy="233.94" r="2.4" fill="#d73027" fill-opacity="0.75"/>
<circle cx="119.31" cy="218.15" r="2.4" fill="#d73027" fill-opacity="0.75"/>
<circle cx="121.65" cy="264.04" r="2.4" fill="#4575b4" fill-opacity="0.75"/>
<circle cx="136.22" cy="248.08" r="2.4" fill="#4575b4" fill-opacity="0.75"/>
<circle cx="183.29" cy="225.20" r="2.4" fill="#d73027" fill-opacity="0.75"/>
<circle cx="120.96" cy="263.23" r="2.4" fill="#4575b4" fill-opacity="0.75"/>
<circle cx="143.05" cy="242.70" r="2.4" fill="#d73027" fill-opacity="0.75"/>
<circle cx="162.57" cy="232.39" r="2.4" fill="#d73027" fill-opacity="0.75"/>
<circle cx="95.84" cy="270.24" r="2.4" fill="#4575b4" fill-opacity="0.75"/>
<circle cx="314.28" cy="141.06" r="2.4" fill="#d73027" fill-opacity="0.75"/>
<circle cx="137.37" cy="258.92" r="2.4" fill="#4575b4" fill-opacity="0.75"/>
<circle cx="304.15" cy="109.48" r="2.4" fill="#d73027" fill-opacity="0.75"/>
<circle cx="201.44" cy="182.69" r="2.4" fill="#d73027" fill-opacity="0.75"/>
<circle cx="290.82" cy="148.15" r="2.4" fill="#d73027" fill-opacity="0.75"/>
<circle cx="146.44" cy="243.24" r="2.4" fill="#d73027" fill-opacity="0.75"/>
<circle cx="82.00" cy="281.61" r="2.4" fill="#4575b4" fill-opacity="0.75"/>
<circle cx="104.09" cy="268.27" r="2.4" fill="#4575b4" fill-opacity="0.75"/>
<circle cx="368.46" cy="89.92" r="2.4" fill="#d73027" fill-opacity="0.75"/>
<circle cx="96.85" cy="270.60" r="2.4" fill="#4575b4" fill-opacity="0.75"/>
<circle cx="92.77" cy="278.66" r="2.4" fill="#4575b4" fill-opacity="0.75"/>
<circle cx="99.23" cy="274.03" r="2.4" fill="#4575b4" fill-opacity="0.75"/>
<circle cx="92.27" cy="281.31" r="2.4" fill="#4575b4" fill-opacity="0.75"/>
<circle cx="120.64" cy="257.84" r="2.4" fill="#4575b4" fill-opacity="0.75"/>
<circle cx="153.82" cy="235.97" r="2.4" fill="#d73027" fill-opacity="0.75"/>
<circle cx="96.16" cy="273.39" r="2.4" fill="#4575b4" fill-opacity="0.75"/>
<circle cx="93.50" cy="274.98" r="2.4" fill="#4575b4" fill-opacity="0.75"/>
<circle cx="89.55" cy="272.46" r="2.4" fill="#4575b4" fill-opacity="0.75"/>
<circle cx="99.78" cy="270.79" r="2.4" fill="#4575b4" fill-opacity="0.75"/>
<circle cx="100.10" cy="270.43" r="2.4" fill="#4575b4" fill-opacity="0.75"/>
<circle cx="127.83" cy="260.69" r="2.4" fill="#4575b4" fill-opacity="0.75"/>
<circle cx="132.78" cy="239.38" r="2.4" fill="#d73027" fill-opacity="0.75"/>
<circle cx="113.90" cy="267.30" r="2.4" fill="#4575b4" fill-opacity="0.75"/>
<circle cx="132.23" cy="257.84" r="2.4" fill="#4575b4" fill-opacity="0.75"/>
<circle cx="106.20" cy="272.10" r="2.4" fill="#4575b4" fill-opacity="0.75"/>
<circle cx="84.34" cy="282.75" r="2.4" fill="#4575b4" fill-opacity="0.75"/>
<circle cx="77.58" cy="291.48" r="2.4" fill="#4575b4" fill-opacity="0.75"/>
<circle cx="123.07" cy="250.49" r="2.4" fill="#4575b4" fill-opacity="0.75"/>
<circle cx="124.03" cy="262.81" r="2.4" fill="#4575b4" fill-opacity="0.75"/>
<circle cx="106.52" cy="271.91" r="2.4" fill="#4575b4" fill-opacity="0.75"/>
<circle cx="125.54" cy="259.70" r="2.4" fill="#4575b4" fill-opacity="0.75"/>
<circle cx="100.61" cy="273.54" r="2.4" fill="#4575b4" fill-opacity="0.75"/>
<circle cx="102.07" cy="269.44" r="2.4" fill="#4575b4" fill-opacity="0.75"/>
<circle cx="129.12" cy="254.91" r="2.4" fill="#4575b4" fill-opacity="0.75"/>
<circle cx="181.87" cy="226.15" r="2.4" fill="#d73027" fill-opacity="0.75"/>
<circle cx="143.97" cy="248.35" r="2.4" fill="#4575b4" fill-opacity="0.75"/>
<circle cx="120.13" cy="260.08" r="2.4" fill="#4575b4" fill-opacity="0.75"/>
<circle cx="107.35" cy="267.23" r="2.4" fill="#4575b4" fill-opacity="0.75"/>
<circle cx="191.31" cy="206.27" r="2.4" fill="#d73027" fill-opacity="0.75"/>
<circle cx="134.52" cy="256.74" r="2.4" fill="#4575b4" fill-opacity="0.75"/>
<circle cx="79.02" cy="283.79" r="2.4" fill="#4575b4" fill-opacity="0.75"/>
<circle cx="272.90" cy="156.57" r="2.4" fill="#d73027" fill-opacity="0.75"/>
<circle cx="162.44" cy="241.62" r="2.4" fill="#d73027" fill-opacity="0.75"/>
<circle cx="158.04" cy="250.30" r="2.4" fill="#4575b4" fill-opacity="0.75"/>
<circle cx="181.00" cy="205.49" r="2.4" fill="#d73027" fill-opacity="0.75"/>
<circle cx="106.06" cy="269.86" r="2.4" fill="#4575b4" fill-opacity="0.75"/>
<circle cx="194.15" cy="185.34" r="2.4" fill="#d73027" fill-opacity="0.75"/>
<circle cx="74.12" cy="290.96" r="2.4" fill="#4575b4" fill-opacity="0.75"/>
<circle cx="162.21" cy="243.40" r="2.4" fill="#d73027" fill-opacity="0.75"/>
<circle cx="92.72" cy="277.58" r="2.4" fill="#4575b4" fill-opacity="0.75"/>
<circle cx="101.85" cy="272.08" r="2.4" fill="#4575b4" fill-opacity="0.75"/>
<circle cx="249.11" cy="171.12" r="2.4" fill="#d73027" fill-opacity="0.75"/>
<circle cx="219.13" cy="214.91" r="2.4" fill="#d73027" fill-opacity="0.75"/>
<circle cx="157.76" cy="248.97" r="2.4" fill="#4575b4" fill-opacity="0.75"/>
<circle cx="86.17" cy="216.39" r="2.4" fill="#d73027" fill-opacity="0.75"/>
<circle cx="157.26" cy="248.71" r="2.4" fill="#4575b4" fill-opacity="0.75"/>
<circle cx="127.38" cy="243.38" r="2.4" fill="#d73027" fill-opacity="0.75"/>
<circle cx="162.39" cy="236.84" r="2.4" fill="#d73027" fill-opacity="0.75"/>
<circle cx="221.65" cy="210.47" r="2.4" fill="#d73027" fill-opacity="0.75"/>
<circle cx="186.91" cy="188.05" r="2.4" fill="#d73027" fill-opacity="0.75"/>
<circle cx="272.85" cy="167.35" r="2.4" fill="#d73027" fill-opacity="0.75"/>
<circle cx="163.90" cy="199.99" r="2.4" fill="#d73027" fill-opacity="0.75"/>
<circle cx="229.90" cy="193.60" r="2.4" fill="#d73027" fill-opacity="0.75"/>
<circle cx="71.37" cy="292.78" r="2.4" fill="#4575b4" fill-opacity="0.75"/>
<circle cx="406.68" cy="81.24" r="2.4" fill="#d73027" fill-opacity="0.75"/>
<circle cx="300.07" cy="153.31" r="2.4" fill="#d73027" fill-opacity="0.75"/>
<circle cx="277.71" cy="177.76" r="2.4" fill="#d73027" fill-opacity="0.75"/>
<circle cx="231.83" cy="189.98" r="2.4" fill="#d73027" fill-opacity="0.75"/>
<circle cx="415.80" cy="86.09" r="2.4" fill="#d73027" fill-opacity="0.75"/>
<circle cx="287.24" cy="176.13" r="2.4" fill="#d73027" fill-opacity="0.75"/>
<circle cx="250.85" cy="180.11" r="2.4" fill="#d73027" fill-opacity="0.75"/>
<circle cx="309.61" cy="165.70" r="2.4" fill="#d73027" fill-opacity="0.75"/>
<circle cx="124.30" cy="259.02" r="2.4" fill="#4575b4" fill-opacity="0.75"/>
<circle cx="155.38" cy="239.15" r="2.4" fill="#d73027" fill-opacity="0.75"/>
<circle cx="112.89" cy="268.17" r="2.4" fill="#4575b4" fill-opacity="0.75"/>
<circle cx="210.65" cy="218.06" r="2.4" fill="#d73027" fill-opacity="0.75"/>
<circle cx="145.80" cy="249.26" r="2.4" fill="#4575b4" fill-opacity="0.75"/>
<circle cx="289.17" cy="157.00" r="2.4" fill="#d73027" fill-opacity="0.75"/>
<circle cx="338.44" cy="131.83" r="2.4" fill="#d73027" fill-opacity="0.75"/>
<circle cx="153.36" cy="240.35" r="2.4" fill="#d73027" fill-opacity="0.75"/>
<circle cx="239.30" cy="194.17" r="2.4" fill="#d73027" fill-opacity="0.75"/>
<circle cx="231.51" cy="195.08" r="2.4" fill="#d73027" fill-opacity="0.75"/>
<circle cx="172.70" cy="238.24" r="2.4" fill="#d73027" fill-opacity="0.75"/>
<circle cx="97.23" cy="271.50" r="2.4" fill="#4575b4" fill-opacity="0.75"/>
<circle cx="129.39" cy="261.84" r="2.4" fill="#4575b4" fill-opacity="0.75"/>
<circle cx="89.65" cy="284.32" r="2.4" fill="#4575b4" fill-opacity="0.75"/>
<circle cx="103.22" cy="256.90" r="2.4" fill="#4575b4" fill-opacity="0.75"/>
<circle cx="265.65" cy="197.60" r="2.4" fill="#d73027" fill-opacity="0.75"/>
<circle cx="134.39" cy="253.86" r="2.4" fill="#4575b4" fill-opacity="0.75"/>
<circle cx="121.23" cy="261.78" r="2.4" fill="#4575b4" fill-opacity="0.75"/>
<circle cx="126.00" cy="235.15" r="2.4" fill="#d73027" fill-opacity="0.75"/>
<circle cx="105.58" cy="273.74" r="2.4" fill="#4575b4" fill-opacity="0.75"/>
<circle cx="121.78" cy="258.03" r="2.4" fill="#4575b4" fill-opacity="0.75"/>
<circle cx="119.40" cy="253.69" r="2.4" fill="#4575b4" fill-opacity="0.75"/>
<circle cx="89.39" cy="274.38" r="2.4" fill="#4575b4" fill-opacity="0.75"/>
<circle cx="98.13" cy="269.94" r="2.4" fill="#4575b4" fill-opacity="0.75"/>
<circle cx="176.74" cy="239.63" r="2.4" fill="#d73027" fill-opacity="0.75"/>
<circle cx="172.59" cy="238.70" r="2.4" fill="#d73027" fill-opacity="0.75"/>
<circle cx="102.44" cy="277.63" r="2.4" fill="#4575b4" fill-opacity="0.75"/>
<circle cx="168.02" cy="233.61" r="2.4" fill="#d73027" fill-opacity="0.75"/>
<circle cx="200.25" cy="216.37" r="2.4" fill="#d73027" fill-opacity="0.75"/>
<circle cx="291.46" cy="148.79" r="2.4" fill="#d73027" fill-opacity="0.75"/>
<circle cx="122.20" cy="252.02" r="2.4" fill="#4575b4" fill-opacity="0.75"/>
<circle cx="301.54" cy="158.10" r="2.4" fill="#d73027" fill-opacity="0.75"/>
<circle cx="267.35" cy="166.14" r="2.4" fill="#d73027" fill-opacity="0.75"/>
<circle cx="134.68" cy="249.35" r="2.4" fill="#4575b4" fill-opacity="0.75"/>
<circle cx="106.89" cy="272.95" r="2.4" fill="#4575b4" fill-opacity="0.75"/>
<circle cx="221.33" cy="212.37" r="2.4" fill="#d73027" fill-opacity="0.75"/>
<circle cx="81.50" cy="283.55" r="2.4" fill="#4575b4" fill-opacity="0.75"/>
<circle cx="116.01" cy="253.75" r="2.4" fill="#4575b4" fill-opacity="0.75"/>
<circle cx="83.57" cy="287.04" r="2.4" fill="#4575b4" fill-opacity="0.75"/>
<circle cx="285.91" cy="175.73" r="2.4" fill="#d73027" fill-opacity="0.75"/>
<circle cx="272.94" cy="176.75" r="2.4" fill="#d73027" fill-opacity="0.75"/>
<circle cx="219.13" cy="189.93" r="2.4" fill="#d73027" fill-opacity="0.75"/>
<circle cx="228.16" cy="185.04" r="2.4" fill="#d73027" fill-opacity="0.75"/>
<circle cx="91.90" cy="267.45" r="2.4" fill="#4575b4" fill-opacity="0.75"/>
<circle cx="146.81" cy="256.12" r="2.4" fill="#4575b4" fill-opacity="0.75"/>
<circle cx="173.21" cy="224.44" r="2.4" fill="#d73027" fill-opacity="0.75"/>
<circle cx="89.20" cy="281.73" r="2.4" fill="#4575b4" fill-opacity="0.75"/>
<circle cx="183.61" cy="216.67" r="2.4" fill="#d73027" fill-opacity="0.75"/>
<circle cx="113.95" cy="258.39" r="2.4" fill="#4575b4" fill-opacity="0.75"/>
<circle cx="412.55" cy="89.46" r="2.4" fill="#d73027" fill-opacity="0.75"/>
<circle cx="139.66" cy="243.68" r="2.4" fill="#d73027" fill-opacity="0.75"/>
<circle cx="113.49" cy="260.21" r="2.4" fill="#4575b4" fill-opacity="0.75"/>
<circle cx="95.70" cy="272.19" r="2.4" fill="#4575b4" fill-opacity="0.75"/>
<circle cx="87.22" cy="278.85" r="2.4" fill="#4575b4" fill-opacity="0.75"/>
<circle cx="176.65" cy="213.39" r="2.4" fill="#d73027" fill-opacity="0.75"/>
<circle cx="132.19" cy="252.50" r="2.4" fill="#4575b4" fill-opacity="0.75"/>
<circle cx="124.12" cy="261.54" r="2.4" fill="#4575b4" fill-opacity="0.75"/>
<circle cx="104.82" cy="263.21" r="2.4" fill="#4575b4" fill-opacity="0.75"/>
<circle cx="270.24" cy="190.14" r="2.4" fill="#d73027" fill-opacity="0.75"/>
<circle cx="144.97" cy="252.27" r="2.4" fill="#4575b4" fill-opacity="0.75"/>
<circle cx="215.70" cy="199.03" r="2.4" fill="#d73027" fill-opacity="0.75"/>
<circle cx="184.03" cy="229.30" r="2.4" fill="#d73027" fill-opacity="0.75"/>
<circle cx="132.83" cy="265.73" r="2.4" fill="#4575b4" fill-opacity="0.75"/>
<circle cx="88.65" cy="276.93" r="2.4" fill="#4575b4" fill-opacity="0.75"/>
<circle cx="120.22" cy="226.57" r="2.4" fill="#d73027" fill-opacity="0.75"/>
<circle cx="147.08" cy="230.62" r="2.4" fill="#d73027" fill-opacity="0.75"/>
<circle cx="157.81" cy="235.46" r="2.4" fill="#d73027" fill-opacity="0.75"/>
<circle cx="161.29" cy="242.13" r="2.4" fill="#d73027" fill-opacity="0.75"/>
<circle cx="98.27" cy="265.99" r="2.4" fill="#4575b4" fill-opacity="0.75"/>
<circle cx="94.51" cy="275.68" r="2.4" fill="#4575b4" fill-opacity="0.75"/>
<circle cx="130.54" cy="226.30" r="2.4" fill="#d73027" fill-opacity="0.75"/>
<circle cx="146.99" cy="228.41" r="2.4" fill="#d73027" fill-opacity="0.75"/>
<circle cx="113.35" cy="261.62" r="2.4" fill="#4575b4" fill-opacity="0.75"/>
<circle cx="108.40" cy="269.67" r="2.4" fill="#4575b4" fill-opacity="0.75"/>
<circle cx="130.63" cy="241.75" r="2.4" fill="#d73027" fill-opacity="0.75"/>
<circle cx="108.45" cy="257.41" r="2.4" fill="#4575b4" fill-opacity="0.75"/>
<circle cx="138.28" cy="208.86" r="2.4" fill="#d73027" fill-opacity="0.75"/>
<circle cx="107.21" cy="210.55" r="2.4" fill="#d73027" fill-opacity="0.75"/>
<circle cx="327.39" cy="131.17" r="2.4" fill="#d73027" fill-opacity="0.75"/>
<circle cx="123.71" cy="267.91" r="2.4" fill="#4575b4" fill-opacity="0.75"/>
<text x="320.00" y="344.00" font-size="10" text-anchor="middle" fill="#333">straight-line distance to nearest mapped crossing (m)</text>
<text x="16" y="173" font-size="10" fill="#333" transform="rotate(-90 16 173)">route distance (m)</text>
<rect x="470" y="52" width="10" height="10" fill="#d73027"/>
<text x="484.00" y="61.00" font-size="10" text-anchor="start" fill="#222">route &gt; 250 m</text>
<rect x="470" y="68" width="10" height="10" fill="#4575b4"/>
<text x="484.00" y="77.00" font-size="10" text-anchor="start" fill="#222">route &lt;= 250 m</text>
</svg>
