<svg xmlns="http://www.w3.org/2000/svg" viewBox="0 0 640 360" font-family="sans-serif">
<rect x="0" y="0" width="640" height="360" fill="#ffffff"/>
<text x="320.00" y="24.00" font-size="13" text-anchor="middle" fill="#222">Top-20 membership frequency across 1000 weight-perturbation trials</text>
<text x="208.00" y="53.14" font-size="9" text-anchor="end" fill="#333">gen_0154</text>
<rect x="214.00" y="45.96" width="392.00" height="8.35" fill="#1a9850"/>
<text x="610.00" y="53.14" font-size="9" text-anchor="start" fill="#333">100.0%</text>
<text x="208.00" y="65.41" font-size="9" text-anchor="end" fill="#333">gen_0158</text>
<rect x="214.00" y="58.24" width="392.00" height="8.35" fill="#1a9850"/>
<text x="610.00" y="65.41" font-size="9" text-anchor="start" fill="#333">100.0%</text>
<text x="208.00" y="77.68" font-size="9" text-anchor="end" fill="#333">gen_0168</text>
<rect x="214.00" y="70.51" width="392.00" height="8.35" fill="#1a9850"/>
<text x="610.00" y="77.68" font-size="9" text-anchor="start" fill="#333">100.0%</text>
<text x="208.00" y="89.95" font-size="9" text-anchor="end" fill="#333">gen_0190</text>
<rect x="214.00" y="82.78" width="392.00" height="8.35" fill="#1a9850"/>
<text x="610.00" y="89.95" font-size="9" text-anchor="start" fill="#333">100.0%</text>
<text x="208.00" y="102.23" font-size="9" text-anchor="end" fill="#333">gen_0215</text>
<rect x="214.00" y="95.05" width="392.00" height="8.35" fill="#1a9850"/>
<text x="610.00" y="102.23" font-size="9" text-anchor="start" fill="#333">100.0%</text>
<text x="208.00" y="114.50" font-size="9" text-anchor="end" fill="#333">gen_0216</text>
<rect x="214.00" y="107.33" width="392.00" height="8.35" fill="#1a9850"/>
<text x="610.00" y="114.50" font-size="9" text-anchor="start" fill="#333">100.0%</text>
<text x="208.00" y="126.77" font-size="9" text-anchor="end" fill="#333">gen_0217</text>
<rect x="214.00" y="119.60" width="392.00" height="8.35" fill="#1a9850"/>
<text x="610.00" y="126.77" font-size="9" text-anchor="start" fill="#333">100.0%</text>
<text x="208.00" y="139.05" font-size="9" text-anchor="end" fill="#333">gen_0244</text>
<rect x="214.00" y="131.87" width="392.00" height="8.35" fill="#1a9850"/>
<text x="610.00" y="139.05" font-size="9" text-anchor="start" fill="#333">100.0%</text>
<text x="208.00" y="151.32" font-size="9" text-anchor="end" fill="#333">gen_0301</text>
<rect x="214.00" y="144.15" width="392.00" height="8.35" fill="#1a9850"/>
<text x="610.00" y="151.32" font-size="9" text-anchor="start" fill="#333">100.0%</text>
<text x="208.00" y="163.59" font-size="9" text-anchor="end" fill="#333">gen_0344</text>
<rect x="214.00" y="156.42" width="392.00" height="8.35" fill="#1a9850"/>
<text x="610.00" y="163.59" font-size="9" text-anchor="start" fill="#333">100.0%</text>
<text x="208.00" y="175.86" font-size="9" text-anchor="end" fill="#333">gen_0366</text>
<rect x="214.00" y="168.69" width="392.00" height="8.35" fill="#1a9850"/>
<text x="610.00" y="175.86" font-size="9" text-anchor="start" fill="#333">100.0%</text>
<text x="208.00" y="188.14" font-size="9" text-anchor="end" fill="#333">gen_0372</text>
<rect x="214.00" y="180.96" width="392.00" height="8.35" fill="#1a9850"/>
<text x="610.00" y="188.14" font-size="9" text-anchor="start" fill="#333">100.0%</text>
<text x="208.00" y="200.41" font-size="9" text-anchor="end" fill="#333">gen_0373</text>
<rect x="214.00" y="193.24" width="392.00" height="8.35" fill="#1a9850"/>
<text x="610.00" y="200.41" font-size="9" text-anchor="start" fill="#333">100.0%</text>
<text x="208.00" y="212.68" font-size="9" text-anchor="end" fill="#333">gen_0379</text>
<rect x="214.00" y="205.51" width="392.00" height="8.35" fill="#1a9850"/>
<text x="610.00" y="212.68" font-size="9" text-anchor="start" fill="#333">100.0%</text>
<text x="208.00" y="224.95" font-size="9" text-anchor="end" fill="#333">gen_0388</text>
<rect x="214.00" y="217.78" width="392.00" height="8.35" fill="#1a9850"/>
<text x="610.00" y="224.95" font-size="9" text-anchor="start" fill="#333">100.0%</text>
<text x="208.00" y="237.23" font-size="9" text-anchor="end" fill="#333">gen_0390</text>
<rect x="214.00" y="230.05" width="392.00" height="8.35" fill="#1a9850"/>
<text x="610.00" y="237.23" font-size="9" text-anchor="start" fill="#333">100.0%</text>
<text x="208.00" y="249.50" font-size="9" text-anchor="end" fill="#333">gen_0191</text>
<rect x="214.00" y="242.33" width="391.22" height="8.35" fill="#1a9850"/>
<text x="609.22" y="249.50" font-size="9" text-anchor="start" fill="#333">99.8%</text>
<text x="208.00" y="261.77" font-size="9" text-anchor="end" fill="#333">gen_0320</text>
<rect x="214.00" y="254.60" width="377.50" height="8.35" fill="#1a9850"/>
<text x="595.50" y="261.77" font-size="9" text-anchor="start" fill="#333">96.3%</text>
<text x="208.00" y="274.05" font-size="9" text-anchor="end" fill="#333">gen_0307</text>
<rect x="214.00" y="266.87" width="353.58" height="8.35" fill="#4575b4"/>
<text x="571.58" y="274.05" font-size="9" text-anchor="start" fill="#333">90.2%</text>
<text x="208.00" y="286.32" font-size="9" text-anchor="end" fill="#333">gen_0321</text>
<rect x="214.00" y="279.15" width="285.38" height="8.35" fill="#4575b4"/>
<text x="503.38" y="286.32" font-size="9" text-anchor="start" fill="#333">72.8%</text>
<text x="208.00" y="298.59" font-size="9" text-anchor="end" fill="#333">gen_0114</text>
<rect x="214.00" y="291.42" width="78.40" height="8.35" fill="#4575b4"/>
<text x="296.40" y="298.59" font-size="9" text-anchor="start" fill="#333">20.0%</text>
<text x="208.00" y="310.86" font-size="9" text-anchor="end" fill="#333">gen_0376</text>
<rect x="214.00" y="303.69" width="38.42" height="8.35" fill="#4575b4"/>
<text x="256.42" y="310.86" font-size="9" text-anchor="start" fill="#333">9.8%</text>
<text x="320.00" y="340.00" font-size="9" text-anchor="middle" fill="#555">stable core (top-20 in &gt;=95% of 1000 trials): 18 destinations (green)</text>
</svg>
